<?xml version="1.0" encoding="utf-8"?>
<!-- Generator: Adobe Illustrator 26.0.3, SVG Export Plug-In . SVG Version: 6.00 Build 0)  -->
<svg version="1.1" id="Layer_1" xmlns="http://www.w3.org/2000/svg" xmlns:xlink="http://www.w3.org/1999/xlink" x="0px" y="0px"
	 viewBox="0 0 111 48.7" style="enable-background:new 0 0 111 48.7;" xml:space="preserve">
<style type="text/css">
	.st0{enable-background:new    ;}
	.st1{fill:#008CED;}
	.st2{fill:#FFB703;}
</style>
<g id="Group_5" transform="translate(3.397 -0.221)">
	<g class="st0">
		<path class="st1" d="M25.5,14h-8.1L12,33.8c2.1-1.1,4.4-1.9,6.8-2.1l1.5-5.7c0.3-1,0.5-2.2,0.6-3.8H21c0.1,1.4,0.2,2.6,0.5,3.8
			l1.5,5.7c2.7,0.4,5.3,1.3,7.5,2.8L25.5,14z M36.8,14l-4.5,21.9c2,1.7,3.6,3.8,4.7,6.3L44.4,14H36.8z M5.3,14H-3l7.3,27.9
			c1.2-2.6,3.1-4.9,5.4-6.7L5.3,14z"/>
		<path class="st1" d="M56.3,41.4v-7.7h11v-6.1h-11v-7.5h11.8V14H48.7v33.6h20.1v-6.1H56.3z"/>
		<path class="st1" d="M81.8,41.4v-7.7h11v-6.1h-11v-7.5h11.8V14H74.2v33.6h20.2v-6.1H81.8z"/>
	</g>
</g>
<circle id="Ellipse_5" class="st2" cx="99" cy="13.4" r="12"/>
</svg>
